<?xml version="1.0" encoding="utf-8"?>
<!-- Generator: Adobe Illustrator 17.0.0, SVG Export Plug-In . SVG Version: 6.00 Build 0)  -->
<!DOCTYPE svg PUBLIC "-//W3C//DTD SVG 1.1//EN" "http://www.w3.org/Graphics/SVG/1.1/DTD/svg11.dtd">
<svg version="1.1" id="Layer_1" xmlns="http://www.w3.org/2000/svg" xmlns:xlink="http://www.w3.org/1999/xlink" x="0px" y="0px"
	 width="300px" height="50px" viewBox="0 0 300 50" enable-background="new 0 0 300 50" xml:space="preserve">
<g>
	<circle fill="#FFFFFF" cx="74.053" cy="27.258" r="4.469"/>
	<path fill="#FFFFFF" d="M80.35,27.259c0,3.477-2.819,6.296-6.296,6.296c-3.477,0-6.296-2.819-6.296-6.296
		c0-1.182,0.327-2.288,0.893-3.233H57.463v10.323c0,0.564,0.457,1.021,1.021,1.021h24.163c0.564,0,1.021-0.457,1.021-1.021V24.026
		h-4.211C80.023,24.971,80.35,26.076,80.35,27.259z"/>
	<path fill="#FFFFFF" d="M82.647,17.446h-2.518l-2.571-2.816H70.55l-2.571,2.816h-5.202v-0.427c0-0.202-0.164-0.366-0.366-0.366
		h-3.315c-0.202,0-0.366,0.164-0.366,0.366v0.427h-0.245c-0.564,0-1.021,0.457-1.021,1.021v4.481h12.004
		c1.148-1.221,2.778-1.985,4.587-1.985c1.809,0,3.438,0.764,4.587,1.985h5.028v-4.481C83.668,17.903,83.211,17.446,82.647,17.446z
		 M81.978,19.821c-0.455,0-0.823-0.368-0.823-0.822c0-0.454,0.368-0.823,0.823-0.823c0.454,0,0.822,0.368,0.822,0.823
		C82.8,19.453,82.432,19.821,81.978,19.821z M62.361,20.474c0,0.202-0.164,0.366-0.366,0.366h-3.315
		c-0.202,0-0.366-0.164-0.366-0.366v-1.932c0-0.202,0.164-0.366,0.366-0.366h3.315c0.202,0,0.366,0.164,0.366,0.366V20.474z"/>
</g>
<text transform="matrix(1 0 0 1 96.6364 32.8756)" fill="#FFFFFF" font-family="'Billabong'" font-size="28">SuperPop Search</text>
</svg>
